<mxfile host="65bd71144e">
    <diagram name="페이지-1" id="7KbxLokwuptEzEELWS9W">
        <mxGraphModel dx="936" dy="435" grid="1" gridSize="10" guides="1" tooltips="1" connect="1" arrows="1" fold="1" page="1" pageScale="1" pageWidth="1100" pageHeight="850" math="0" shadow="0">
            <root>
                <mxCell id="0"/>
                <mxCell id="1" parent="0"/>
                <mxCell id="kqJTcWnNG07lAXhznO-t-1" value="&lt;div&gt;Home.jsp&lt;/div&gt;" style="swimlane;fontStyle=0;childLayout=stackLayout;horizontal=1;startSize=30;horizontalStack=0;resizeParent=1;resizeParentMax=0;resizeLast=0;collapsible=1;marginBottom=0;whiteSpace=wrap;html=1;" parent="1" vertex="1">
                    <mxGeometry x="160" y="320" width="140" height="60" as="geometry">
                        <mxRectangle x="430" y="270" width="90" height="30" as="alternateBounds"/>
                    </mxGeometry>
                </mxCell>
                <mxCell id="kqJTcWnNG07lAXhznO-t-2" value="갤러리" style="text;strokeColor=none;fillColor=none;align=left;verticalAlign=middle;spacingLeft=4;spacingRight=4;overflow=hidden;points=[[0,0.5],[1,0.5]];portConstraint=eastwest;rotatable=0;whiteSpace=wrap;html=1;" parent="kqJTcWnNG07lAXhznO-t-1" vertex="1">
                    <mxGeometry y="30" width="140" height="30" as="geometry"/>
                </mxCell>
                <mxCell id="4" style="edgeStyle=orthogonalEdgeStyle;rounded=0;html=1;" edge="1" parent="1" source="kqJTcWnNG07lAXhznO-t-4" target="kqJTcWnNG07lAXhznO-t-13">
                    <mxGeometry relative="1" as="geometry"/>
                </mxCell>
                <mxCell id="kqJTcWnNG07lAXhznO-t-4" value="GalleryVO" style="swimlane;fontStyle=0;childLayout=stackLayout;horizontal=1;startSize=30;horizontalStack=0;resizeParent=1;resizeParentMax=0;resizeLast=0;collapsible=1;marginBottom=0;whiteSpace=wrap;html=1;" parent="1" vertex="1">
                    <mxGeometry x="550" y="60" width="140" height="240" as="geometry"/>
                </mxCell>
                <mxCell id="kqJTcWnNG07lAXhznO-t-5" value="G_NUM" style="text;strokeColor=none;fillColor=none;align=left;verticalAlign=middle;spacingLeft=4;spacingRight=4;overflow=hidden;points=[[0,0.5],[1,0.5]];portConstraint=eastwest;rotatable=0;whiteSpace=wrap;html=1;" parent="kqJTcWnNG07lAXhznO-t-4" vertex="1">
                    <mxGeometry y="30" width="140" height="30" as="geometry"/>
                </mxCell>
                <mxCell id="kqJTcWnNG07lAXhznO-t-6" value="USER_ID" style="text;strokeColor=default;fillColor=none;align=left;verticalAlign=middle;spacingLeft=4;spacingRight=4;overflow=hidden;points=[[0,0.5],[1,0.5]];portConstraint=eastwest;rotatable=0;whiteSpace=wrap;html=1;dashed=1;" parent="kqJTcWnNG07lAXhznO-t-4" vertex="1">
                    <mxGeometry y="60" width="140" height="30" as="geometry"/>
                </mxCell>
                <mxCell id="kqJTcWnNG07lAXhznO-t-7" value="G_TITLE" style="text;strokeColor=none;fillColor=none;align=left;verticalAlign=middle;spacingLeft=4;spacingRight=4;overflow=hidden;points=[[0,0.5],[1,0.5]];portConstraint=eastwest;rotatable=0;whiteSpace=wrap;html=1;" parent="kqJTcWnNG07lAXhznO-t-4" vertex="1">
                    <mxGeometry y="90" width="140" height="30" as="geometry"/>
                </mxCell>
                <mxCell id="kqJTcWnNG07lAXhznO-t-8" value="G_HASHTAG" style="text;strokeColor=default;fillColor=none;align=left;verticalAlign=middle;spacingLeft=4;spacingRight=4;overflow=hidden;points=[[0,0.5],[1,0.5]];portConstraint=eastwest;rotatable=0;whiteSpace=wrap;html=1;dashed=1;" parent="kqJTcWnNG07lAXhznO-t-4" vertex="1">
                    <mxGeometry y="120" width="140" height="30" as="geometry"/>
                </mxCell>
                <mxCell id="kqJTcWnNG07lAXhznO-t-10" value="G_IMG" style="text;strokeColor=default;fillColor=none;align=left;verticalAlign=middle;spacingLeft=4;spacingRight=4;overflow=hidden;points=[[0,0.5],[1,0.5]];portConstraint=eastwest;rotatable=0;whiteSpace=wrap;html=1;dashed=1;" parent="kqJTcWnNG07lAXhznO-t-4" vertex="1">
                    <mxGeometry y="150" width="140" height="30" as="geometry"/>
                </mxCell>
                <mxCell id="3" value="G_LIKED" style="text;strokeColor=none;fillColor=none;align=left;verticalAlign=middle;spacingLeft=4;spacingRight=4;overflow=hidden;points=[[0,0.5],[1,0.5]];portConstraint=eastwest;rotatable=0;whiteSpace=wrap;html=1;" vertex="1" parent="kqJTcWnNG07lAXhznO-t-4">
                    <mxGeometry y="180" width="140" height="30" as="geometry"/>
                </mxCell>
                <mxCell id="5" value="G_REGDATE" style="text;strokeColor=default;fillColor=none;align=left;verticalAlign=middle;spacingLeft=4;spacingRight=4;overflow=hidden;points=[[0,0.5],[1,0.5]];portConstraint=eastwest;rotatable=0;whiteSpace=wrap;html=1;dashed=1;" vertex="1" parent="kqJTcWnNG07lAXhznO-t-4">
                    <mxGeometry y="210" width="140" height="30" as="geometry"/>
                </mxCell>
                <mxCell id="kqJTcWnNG07lAXhznO-t-12" style="edgeStyle=orthogonalEdgeStyle;rounded=0;orthogonalLoop=1;jettySize=auto;html=1;startArrow=classic;startFill=1;" parent="1" source="kqJTcWnNG07lAXhznO-t-13" target="kqJTcWnNG07lAXhznO-t-18" edge="1">
                    <mxGeometry relative="1" as="geometry"/>
                </mxCell>
                <mxCell id="kqJTcWnNG07lAXhznO-t-13" value="GalleryDAO" style="swimlane;fontStyle=0;childLayout=stackLayout;horizontal=1;startSize=30;horizontalStack=0;resizeParent=1;resizeParentMax=0;resizeLast=0;collapsible=1;marginBottom=0;whiteSpace=wrap;html=1;" parent="1" vertex="1">
                    <mxGeometry x="550" y="320" width="140" height="90" as="geometry"/>
                </mxCell>
                <mxCell id="kqJTcWnNG07lAXhznO-t-14" value="getThum();" style="text;strokeColor=none;fillColor=none;align=left;verticalAlign=middle;spacingLeft=4;spacingRight=4;overflow=hidden;points=[[0,0.5],[1,0.5]];portConstraint=eastwest;rotatable=0;whiteSpace=wrap;html=1;" parent="kqJTcWnNG07lAXhznO-t-13" vertex="1">
                    <mxGeometry y="30" width="140" height="30" as="geometry"/>
                </mxCell>
                <mxCell id="kqJTcWnNG07lAXhznO-t-15" value="getDetails();" style="text;strokeColor=default;fillColor=none;align=left;verticalAlign=middle;spacingLeft=4;spacingRight=4;overflow=hidden;points=[[0,0.5],[1,0.5]];portConstraint=eastwest;rotatable=0;whiteSpace=wrap;html=1;dashed=1;" parent="kqJTcWnNG07lAXhznO-t-13" vertex="1">
                    <mxGeometry y="60" width="140" height="30" as="geometry"/>
                </mxCell>
                <mxCell id="kqJTcWnNG07lAXhznO-t-18" value="Gallery&lt;br&gt;&lt;div&gt;DB&lt;br&gt;&lt;/div&gt;" style="shape=cylinder3;whiteSpace=wrap;html=1;boundedLbl=1;backgroundOutline=1;size=15;" parent="1" vertex="1">
                    <mxGeometry x="740" y="325" width="60" height="80" as="geometry"/>
                </mxCell>
                <mxCell id="kqJTcWnNG07lAXhznO-t-19" style="edgeStyle=orthogonalEdgeStyle;rounded=0;orthogonalLoop=1;jettySize=auto;html=1;" parent="1" source="kqJTcWnNG07lAXhznO-t-2" target="kqJTcWnNG07lAXhznO-t-23" edge="1">
                    <mxGeometry relative="1" as="geometry">
                        <mxPoint x="360" y="415" as="targetPoint"/>
                    </mxGeometry>
                </mxCell>
                <mxCell id="kqJTcWnNG07lAXhznO-t-23" value="GalleryList.jsp" style="swimlane;fontStyle=0;childLayout=stackLayout;horizontal=1;startSize=30;horizontalStack=0;resizeParent=1;resizeParentMax=0;resizeLast=0;collapsible=1;marginBottom=0;whiteSpace=wrap;html=1;" parent="1" vertex="1">
                    <mxGeometry x="340" y="320" width="140" height="110" as="geometry"/>
                </mxCell>
                <mxCell id="kqJTcWnNG07lAXhznO-t-24" value="&lt;div&gt;갤러리 아티클을&amp;nbsp;&lt;/div&gt;&lt;div&gt;격자구조로 표시&lt;/div&gt;" style="text;strokeColor=none;fillColor=none;align=left;verticalAlign=middle;spacingLeft=4;spacingRight=4;overflow=hidden;points=[[0,0.5],[1,0.5]];portConstraint=eastwest;rotatable=0;whiteSpace=wrap;html=1;" parent="kqJTcWnNG07lAXhznO-t-23" vertex="1">
                    <mxGeometry y="30" width="140" height="40" as="geometry"/>
                </mxCell>
                <mxCell id="kqJTcWnNG07lAXhznO-t-40" value="선택한 아티클을 기존 화면에 덮어씌우듯 표시" style="text;strokeColor=default;fillColor=none;align=left;verticalAlign=middle;spacingLeft=4;spacingRight=4;overflow=hidden;points=[[0,0.5],[1,0.5]];portConstraint=eastwest;rotatable=0;whiteSpace=wrap;html=1;dashed=1;" parent="kqJTcWnNG07lAXhznO-t-23" vertex="1">
                    <mxGeometry y="70" width="140" height="40" as="geometry"/>
                </mxCell>
                <mxCell id="kqJTcWnNG07lAXhznO-t-42" style="edgeStyle=orthogonalEdgeStyle;rounded=0;orthogonalLoop=1;jettySize=auto;html=1;startArrow=classic;startFill=1;" parent="1" source="kqJTcWnNG07lAXhznO-t-40" target="kqJTcWnNG07lAXhznO-t-15" edge="1">
                    <mxGeometry relative="1" as="geometry"/>
                </mxCell>
                <mxCell id="2" style="edgeStyle=orthogonalEdgeStyle;html=1;rounded=0;startArrow=classic;startFill=1;" edge="1" parent="1" source="kqJTcWnNG07lAXhznO-t-24" target="kqJTcWnNG07lAXhznO-t-14">
                    <mxGeometry relative="1" as="geometry"/>
                </mxCell>
            </root>
        </mxGraphModel>
    </diagram>
</mxfile>